<svg width="256" height="256" viewBox="-18 -32 256 256" fill="none" xmlns="http://www.w3.org/2000/svg">
<path d="M150.864 19.5363C192.232 19.5364 225.767 52.8458 225.767 93.9348C225.767 135.024 192.232 168.332 150.864 168.332C138.834 168.332 127.467 165.515 117.394 160.509C115.99 159.811 104.5 165.578 103.507 166.791V166.791L61.0938 218.569C56.5899 224.067 48.2865 224.49 43.2403 219.478L33.5265 209.828C28.4804 204.816 28.906 196.569 34.4415 192.095L86.5685 149.966V149.966C87.667 149.078 91.3129 139.086 90.4727 137.951C81.351 125.625 75.9621 110.405 75.962 93.9348C75.962 52.8458 109.497 19.5364 150.864 19.5363ZM151.289 37.2902C119.558 37.2904 93.8352 62.8398 93.8351 94.3566C93.8351 125.874 119.558 151.424 151.289 151.424C183.02 151.424 208.743 125.874 208.743 94.3566C208.743 62.8396 183.02 37.2902 151.289 37.2902Z" fill="black"/>
<ellipse cx="160.651" cy="91.8227" rx="57.4542" ry="57.0667" fill="#43A9B6" fill-opacity="0.75"/>
<path d="M136.105 125.98C135.063 125.98 134.271 125.709 133.73 125.167C133.188 124.626 132.917 124.042 132.917 123.417C132.917 122.751 133.167 122.167 133.667 121.667C134.209 121.126 135.001 120.855 136.042 120.855H143.855V58.1674H137.792C136.751 58.1674 135.959 57.8965 135.417 57.3549C134.917 56.8132 134.667 56.209 134.667 55.5424C134.667 54.834 134.938 54.209 135.48 53.6674C136.021 53.084 136.813 52.7924 137.855 52.7924H157.855C163.896 52.7924 169.209 53.2715 173.792 54.2299C178.417 55.1882 182.021 57.084 184.605 59.9174C187.188 62.7507 188.48 67.0007 188.48 72.6674C188.48 77.459 187.146 81.2299 184.48 83.9799C181.813 86.6882 178.855 88.6465 175.605 89.8549L188.355 120.855H193.605C195.188 120.855 196.251 121.126 196.792 121.667C197.334 122.167 197.605 122.73 197.605 123.355C197.605 124.022 197.313 124.626 196.73 125.167C196.146 125.709 195.126 125.98 193.667 125.98H178.98C177.938 125.98 177.146 125.709 176.605 125.167C176.063 124.626 175.792 124.022 175.792 123.355C175.792 122.73 176.042 122.167 176.542 121.667C177.042 121.126 177.813 120.855 178.855 120.855H182.042L170.792 91.2299C170.501 91.3132 169.73 91.4382 168.48 91.6049C167.271 91.7299 165.938 91.8549 164.48 91.9799C163.021 92.0632 161.792 92.1049 160.792 92.1049H149.855V120.855H161.105C162.146 120.855 162.917 121.126 163.417 121.667C163.917 122.167 164.167 122.751 164.167 123.417C164.167 124.042 163.917 124.626 163.417 125.167C162.917 125.709 162.126 125.98 161.042 125.98H136.105ZM149.855 87.2924H156.542C161.709 87.2924 166.23 86.9799 170.105 86.3549C174.021 85.6882 177.063 84.3549 179.23 82.3549C181.396 80.3132 182.48 77.2299 182.48 73.1049C182.48 68.8549 181.646 65.6674 179.98 63.5424C178.313 61.3757 175.667 59.9382 172.042 59.2299C168.417 58.5215 163.667 58.1674 157.792 58.1674H149.855V87.2924Z" fill="#7750C1"/>
<path d="M161.078 17C202.445 17.0003 235.981 50.3096 235.981 91.3984C235.981 132.487 202.445 165.796 161.078 165.796C149.048 165.796 137.68 162.979 127.606 157.972C126.206 157.276 114.711 163.045 113.72 164.255V164.255L71.3069 216.032C66.8029 221.531 58.4995 221.954 53.4534 216.941L43.7395 207.293C38.6933 202.281 39.119 194.032 44.6545 189.559L96.7815 147.431V147.431C97.8802 146.543 101.526 136.55 100.686 135.414C91.5645 123.089 86.1761 107.869 86.176 91.3984C86.176 50.3095 119.711 17 161.078 17ZM161.503 34.7539C129.772 34.754 104.049 60.3033 104.049 91.8203C104.049 123.337 129.772 148.887 161.503 148.887C193.234 148.887 218.957 123.337 218.957 91.8203C218.957 60.3034 193.234 34.7541 161.503 34.7539Z" fill="#1B5876"/>
</svg>
